<svg xmlns="http://www.w3.org/2000/svg" width="320" height="165" viewBox="0 0 320 165" role="img" aria-label="Top Languages">
  <rect x="0.5" y="0.5" width="319" height="164" rx="8" fill="#282c34" stroke="#3e4451"/>
  <text x="20" y="30" font-family="'Segoe UI', Ubuntu, sans-serif" font-size="15" font-weight="600" fill="#61afef">Top Languages</text>
  <clipPath id="bar"><rect x="20" y="46" width="280" height="10" rx="5.0"/></clipPath>
  <g clip-path="url(#bar)">
    <rect x="20.0" y="46" width="83.0" height="10" fill="#00B4AB"/>
    <rect x="105.0" y="46" width="48.2" height="10" fill="#3178c6"/>
    <rect x="155.2" y="46" width="30.1" height="10" fill="#00ADD8"/>
    <rect x="187.2" y="46" width="26.9" height="10" fill="#F05138"/>
    <rect x="216.1" y="46" width="22.3" height="10" fill="#3572A5"/>
    <rect x="240.4" y="46" width="15.6" height="10" fill="#9FA8DA"/>
    <rect x="258.0" y="46" width="42.0" height="10" fill="#5c6370"/>
  </g>
  <circle cx="24" cy="80" r="4" fill="#00B4AB"/>
  <text x="34" y="84" font-family="'Segoe UI', Ubuntu, sans-serif" font-size="12" fill="#abb2bf">Dart <tspan fill="#8b929e">31.0%</tspan></text>
  <circle cx="174" cy="80" r="4" fill="#3178c6"/>
  <text x="184" y="84" font-family="'Segoe UI', Ubuntu, sans-serif" font-size="12" fill="#abb2bf">TypeScript <tspan fill="#8b929e">18.0%</tspan></text>
  <circle cx="24" cy="104" r="4" fill="#00ADD8"/>
  <text x="34" y="108" font-family="'Segoe UI', Ubuntu, sans-serif" font-size="12" fill="#abb2bf">Go <tspan fill="#8b929e">11.2%</tspan></text>
  <circle cx="174" cy="104" r="4" fill="#F05138"/>
  <text x="184" y="108" font-family="'Segoe UI', Ubuntu, sans-serif" font-size="12" fill="#abb2bf">Swift <tspan fill="#8b929e">10.0%</tspan></text>
  <circle cx="24" cy="128" r="4" fill="#3572A5"/>
  <text x="34" y="132" font-family="'Segoe UI', Ubuntu, sans-serif" font-size="12" fill="#abb2bf">Python <tspan fill="#8b929e">8.3%</tspan></text>
  <circle cx="174" cy="128" r="4" fill="#9FA8DA"/>
  <text x="184" y="132" font-family="'Segoe UI', Ubuntu, sans-serif" font-size="12" fill="#abb2bf">PHP <tspan fill="#8b929e">5.8%</tspan></text>
  <circle cx="24" cy="152" r="4" fill="#5c6370"/>
  <text x="34" y="156" font-family="'Segoe UI', Ubuntu, sans-serif" font-size="12" fill="#abb2bf">Other <tspan fill="#8b929e">15.7%</tspan></text>
</svg>
